<svg width="32" height="32" viewBox="0 0 32 32" fill="none" xmlns="http://www.w3.org/2000/svg">
  <!-- Fondo con gradiente -->
  <defs>
    <linearGradient id="bgGradient" x1="0%" y1="0%" x2="100%" y2="100%">
      <stop offset="0%" stop-color="#8B5CF6"/>
      <stop offset="100%" stop-color="#EC4899"/>
    </linearGradient>
    <linearGradient id="sunGradient" x1="0%" y1="0%" x2="100%" y2="100%">
      <stop offset="0%" stop-color="#FBBF24"/>
      <stop offset="100%" stop-color="#F59E0B"/>
    </linearGradient>
  </defs>
  
  <!-- Círculo de fondo -->
  <circle cx="16" cy="16" r="15" fill="url(#bgGradient)" stroke="#FFFFFF" stroke-width="0.5"/>
  
  <!-- Sol -->
  <circle cx="12" cy="12" r="6" fill="url(#sunGradient)"/>
  
  <!-- Rayos del sol -->
  <g stroke="#FBBF24" stroke-width="1.5">
    <line x1="12" y1="5" x2="12" y2="3" stroke-linecap="round"/>
    <line x1="19" y1="12" x2="21" y2="12" stroke-linecap="round"/>
    <line x1="12" y1="19" x2="12" y2="21" stroke-linecap="round"/>
    <line x1="5" y1="12" x2="3" y2="12" stroke-linecap="round"/>
    <line x1="16" y1="8" x2="18" y2="6" stroke-linecap="round"/>
    <line x1="16" y1="16" x2="18" y2="18" stroke-linecap="round"/>
    <line x1="8" y1="16" x2="6" y2="18" stroke-linecap="round"/>
    <line x1="8" y1="8" x2="6" y2="6" stroke-linecap="round"/>
  </g>
  
  <!-- Nube -->
  <path d="M22 20C23.5 20 24.5 19 25 18C25.5 18 26 18.5 26 19C26 20 25 21 24 21C23 22 21 22 20 21C19 22 17 22 16 21C15 22 13 22 12 21C11 22 9 22 8 21C7 22 5 22 5 21C4 20 4 19 5 18C5.5 17 6.5 16 8 16C9 16 10 17 11 17C12 16 13 15 15 15C17 15 18 16 19 17C20 16 21 15 22 15C23.5 15 24.5 16 25 17C25.5 18 25.5 19 25 20Z" fill="white" opacity="0.95"/>
</svg>